<svg version="1.1" id="Layer_1" xmlns="http://www.w3.org/2000/svg" xmlns:xlink="http://www.w3.org/1999/xlink" x="0px" y="0px"
	 width="100%" viewBox="0 0 512 512" enable-background="new 0 0 512 512" xml:space="preserve">
<path fill="#FFFFFF" opacity="1.000000" stroke="none" 
	d="
M513.000000,87.000000 
	C513.000000,200.022018 513.000000,313.044037 512.630676,426.278870 
	C511.976166,427.060913 511.506927,427.607025 511.432312,428.202606 
	C508.734161,449.738678 499.389771,468.135284 484.389160,483.536011 
	C470.316315,497.984192 453.059967,506.940979 433.273926,511.017120 
	C432.096436,511.259735 431.087433,512.320129 430.000000,513.000000 
	C316.311310,513.000000 202.622650,513.000000 88.414505,512.615906 
	C68.657921,509.542053 51.157742,502.313049 36.381432,489.885559 
	C18.652290,474.974670 7.168523,455.916321 2.890435,432.845581 
	C2.699450,431.815643 1.649729,430.944885 0.999998,430.000000 
	C1.000000,314.644653 1.000000,199.289307 1.363099,83.682983 
	C2.376179,81.257332 3.163589,79.113197 3.654824,76.903236 
	C8.432333,55.410183 19.978107,37.797367 36.327808,23.707865 
	C49.031590,12.760266 64.246140,5.902132 80.968918,2.878394 
	C81.734138,2.740030 82.326912,1.647907 83.000000,1.000000 
	C199.022018,1.000000 315.044037,1.000000 431.220337,1.330003 
	C432.350739,2.095986 433.286438,2.712046 434.308868,2.941030 
	C450.505890,6.568401 465.371826,13.235912 477.915466,24.069204 
	C496.803528,40.381821 508.453918,60.930267 511.660736,85.952011 
	C511.711975,86.351990 512.536377,86.652870 513.000000,87.000000 
M282.375122,112.267120 
	C279.552643,115.093109 276.730164,117.919106 273.327667,121.100426 
	C268.507141,125.962486 263.686584,130.824554 258.237061,135.957001 
	C253.011414,141.239716 247.785751,146.522430 241.966476,152.006744 
	C239.307129,154.669495 236.647781,157.332245 233.384293,160.263474 
	C231.236664,162.452774 229.089035,164.642090 226.361130,167.175919 
	C222.584976,170.837479 218.808838,174.499054 215.364014,177.839355 
	C245.640884,208.041748 275.399536,237.727173 305.619690,267.873016 
	C309.150787,264.119202 312.977112,260.051544 317.205719,255.422012 
	C320.853271,251.787567 324.500793,248.153107 328.797852,244.228088 
	C334.852936,238.149139 340.908020,232.070190 347.379547,225.470306 
	C352.850250,220.297913 358.320923,215.125519 364.415497,209.667236 
	C369.058258,203.825714 373.701019,197.984177 378.984100,191.938492 
	C384.710907,183.531387 387.956879,174.303589 388.624481,163.377792 
	C388.405121,158.248444 388.534363,153.076218 387.909485,147.996750 
	C384.019806,116.379768 352.632141,91.797882 320.243378,95.311768 
	C313.497772,97.233665 306.752136,99.155563 299.286255,101.082581 
	C293.850281,104.718910 288.414307,108.355232 282.375122,112.267120 
M163.099731,228.793884 
	C157.987244,234.002563 152.874741,239.211243 147.125656,244.712036 
	C142.962051,249.759552 138.798431,254.807068 134.094162,260.263214 
	C131.594345,267.125793 129.094513,273.988403 126.132423,281.515106 
	C124.261322,293.920013 125.364120,305.990265 130.093994,317.681091 
	C140.912262,344.420654 171.496948,361.573090 198.770340,355.800720 
	C205.856247,353.220673 212.942139,350.640594 220.717392,347.950317 
	C226.514679,343.057129 232.311981,338.163940 238.704712,332.933197 
	C242.788559,328.911499 246.872406,324.889801 251.565887,320.624390 
	C255.037796,317.080353 258.509705,313.536316 262.591492,309.719574 
	C265.124054,306.846405 267.656616,303.973267 270.775787,300.798523 
	C273.571533,298.215942 276.367310,295.633362 279.748016,292.764618 
	C282.698608,289.566742 285.649170,286.368835 289.249756,283.101624 
	C291.553955,281.106720 293.858154,279.111816 295.453796,277.730347 
	C265.087189,247.357971 235.269821,217.534897 205.132828,187.392166 
	C202.576584,190.164871 199.674957,193.312256 196.181091,196.745514 
	C195.092590,197.769821 194.004089,198.794113 192.340820,200.169861 
	C186.765793,205.731354 181.190750,211.292831 175.068512,217.163040 
	C171.283768,220.936951 167.499023,224.710846 163.099731,228.793884 
M190.351288,448.090363 
	C192.701691,442.253235 195.052109,436.416107 197.402512,430.579010 
	C197.980057,430.696289 198.557587,430.813568 199.135132,430.930847 
	C199.135132,437.556976 199.253265,444.186096 199.085678,450.807983 
	C199.000900,454.157318 200.178207,454.916504 202.538208,453.978149 
	C202.538208,443.421570 202.538208,433.321991 202.538208,423.309387 
	C196.718292,422.617554 196.745178,422.627930 195.067719,426.978760 
	C192.443268,433.785858 189.778244,440.577332 186.721344,448.425659 
	C183.648575,440.398468 180.926514,433.789246 178.612289,427.040161 
	C177.367157,423.408905 175.635574,421.697174 171.198471,423.574829 
	C171.198471,433.431488 171.198471,443.514435 171.198471,453.839630 
	C173.875122,454.952667 174.525330,453.577789 174.477753,450.786804 
	C174.362030,443.995026 174.440079,437.199890 174.440079,430.406128 
	C175.000702,430.367279 175.561325,430.328400 176.121964,430.289520 
	C178.548737,436.956879 180.899857,443.653564 183.465256,450.267181 
	C183.986557,451.611053 185.315247,452.641754 186.271713,453.816864 
	C187.379425,452.619781 188.520081,451.450653 189.573975,450.207947 
	C189.875366,449.852539 189.925262,449.283905 190.351288,448.090363 
M331.621613,462.976471 
	C333.608612,463.136383 335.605316,463.506958 337.580750,463.416046 
	C343.130005,463.160614 346.838867,460.505981 347.074158,455.739471 
	C347.465088,447.820557 347.180634,439.868317 347.180634,431.609741 
	C340.683563,430.901459 334.122131,429.089264 329.448059,435.139343 
	C326.121338,439.445496 326.155792,444.539520 328.789825,449.286987 
	C332.286102,455.588409 337.900726,454.397125 343.488464,452.458832 
	C343.136505,460.298523 340.157562,461.662781 328.682770,458.998169 
	C329.659851,460.697449 330.261627,461.743988 331.621613,462.976471 
M242.985550,431.417206 
	C241.987671,432.002777 240.852448,432.437592 240.015472,433.199860 
	C236.192856,436.681335 235.113449,443.659424 237.463760,449.000275 
	C239.201920,452.950073 242.307831,454.972900 246.538498,454.713013 
	C249.946442,454.503662 253.319519,453.726807 256.961334,453.162476 
	C256.961334,443.731262 256.965759,433.763184 256.952972,423.795105 
	C256.951935,422.988647 256.832672,422.182343 256.743469,421.064240 
	C255.767670,421.064240 254.335159,420.936584 254.306595,421.082947 
	C253.618851,424.606659 253.081207,428.159698 252.601181,431.175049 
	C249.543549,431.175049 246.615845,431.175049 242.985550,431.417206 
M229.104477,434.483246 
	C224.768127,430.338348 219.537094,429.564819 215.194748,432.426392 
	C210.776535,435.337982 208.915817,442.543274 211.136444,448.141327 
	C213.123184,453.149750 218.231750,455.496155 224.871964,454.450165 
	C229.053116,453.791534 229.053116,453.791534 229.281982,450.659332 
	C218.015976,452.243866 215.027969,450.854736 215.095322,443.635071 
	C220.329254,443.635071 225.574081,443.635071 231.724609,443.635071 
	C230.874176,440.381439 230.185257,437.745728 229.104477,434.483246 
M318.738617,433.799744 
	C313.547363,429.962128 307.665192,429.697754 303.756805,433.126282 
	C299.554016,436.813110 298.444031,444.607544 301.408478,449.616913 
	C304.124878,454.207123 309.528412,456.024414 314.813446,454.125214 
	C322.013153,451.537964 324.014923,442.542206 318.738617,433.799744 
M282.343933,429.606445 
	C282.316803,423.389404 282.316803,423.389404 278.862366,423.462952 
	C278.862366,433.545532 278.862366,443.632996 278.862366,454.134583 
	C284.129974,454.134583 289.242584,454.203827 294.349792,454.068268 
	C295.228302,454.044952 296.083679,453.150177 296.949738,452.657928 
	C296.048767,452.045074 295.172455,450.950928 294.242523,450.903229 
	C290.356659,450.704193 286.454681,450.819366 282.343597,450.819366 
	C282.343597,443.446472 282.343597,436.984497 282.343933,429.606445 
M269.241119,451.853668 
	C269.239166,445.882660 269.314423,439.909576 269.155029,433.942780 
	C269.130066,433.008423 268.038818,432.102570 267.440582,431.183563 
	C266.852783,432.123993 265.777344,433.053406 265.755737,434.006653 
	C265.606567,440.585205 265.677216,447.168671 265.677216,454.905640 
	C267.424225,453.828491 268.323792,453.273834 269.241119,451.853668 
z"/>
<path fill="#020202" opacity="1.000000" stroke="none" 
	d="
M430.468658,513.000000 
	C431.087433,512.320129 432.096436,511.259735 433.273926,511.017120 
	C453.059967,506.940979 470.316315,497.984192 484.389160,483.536011 
	C499.389771,468.135284 508.734161,449.738678 511.432312,428.202606 
	C511.506927,427.607025 511.976166,427.060913 512.630676,426.745850 
	C513.000000,455.592255 513.000000,484.184540 513.000000,513.000000 
	C485.646179,513.000000 458.291748,513.000000 430.468658,513.000000 
z"/>
<path fill="#020202" opacity="1.000000" stroke="none" 
	d="
M0.999998,430.468658 
	C1.649729,430.944885 2.699450,431.815643 2.890435,432.845581 
	C7.168523,455.916321 18.652290,474.974670 36.381432,489.885559 
	C51.157742,502.313049 68.657921,509.542053 87.947525,512.615906 
	C59.074818,513.000000 30.149635,513.000000 1.000000,513.000000 
	C1.000000,485.646179 1.000000,458.291748 0.999998,430.468658 
z"/>
<path fill="#020202" opacity="1.000000" stroke="none" 
	d="
M513.000000,86.531342 
	C512.536377,86.652870 511.711975,86.351990 511.660736,85.952011 
	C508.453918,60.930267 496.803528,40.381821 477.915466,24.069204 
	C465.371826,13.235912 450.505890,6.568401 434.308868,2.941030 
	C433.286438,2.712046 432.350739,2.095986 431.687317,1.330003 
	C458.929077,1.000000 485.858154,1.000000 513.000000,1.000000 
	C513.000000,29.353872 513.000000,57.708279 513.000000,86.531342 
z"/>
<path fill="#020202" opacity="1.000000" stroke="none" 
	d="
M82.531342,1.000000 
	C82.326912,1.647907 81.734138,2.740030 80.968918,2.878394 
	C64.246140,5.902132 49.031590,12.760266 36.327808,23.707865 
	C19.978107,37.797367 8.432333,55.410183 3.654824,76.903236 
	C3.163589,79.113197 2.376179,81.257332 1.363099,83.216003 
	C1.000000,55.739769 1.000000,28.479540 1.000000,1.000000 
	C28.020498,1.000000 55.041592,1.000000 82.531342,1.000000 
z"/>
<path fill="#56D3F4" opacity="1.000000" stroke="none" 
	d="
M238.109283,333.270752 
	C232.311981,338.163940 226.514679,343.057129 220.221100,347.657959 
	C218.764938,341.046326 215.394394,336.246155 210.435196,332.383698 
	C207.696945,330.251007 205.011719,328.037842 202.429199,325.719879 
	C194.952698,319.009216 187.456436,312.316589 180.130188,305.443909 
	C174.620972,300.275757 169.377640,294.824951 163.986099,289.530334 
	C160.834106,286.435028 158.225250,282.380341 152.936615,282.612122 
	C157.634552,276.164276 162.282364,270.070801 167.286392,264.017883 
	C172.255661,267.699127 176.956314,271.235596 181.453674,275.014038 
	C184.967133,277.965820 188.222122,281.224640 191.604233,284.333618 
	C193.166916,285.770111 194.827072,287.106506 196.325378,288.605896 
	C201.783691,294.068237 207.202744,299.569977 212.615280,305.077820 
	C215.328568,307.838867 217.918549,310.725800 220.711136,313.402588 
	C222.576553,315.190643 224.550949,316.951477 226.738129,318.300507 
	C232.496704,321.852386 236.129440,326.905853 238.109283,333.270752 
z"/>
<path fill="#4CE3E7" opacity="1.000000" stroke="none" 
	d="
M197.991272,355.726898 
	C171.496948,361.573090 140.912262,344.420654 130.093994,317.681091 
	C125.364120,305.990265 124.261322,293.920013 126.743690,281.245026 
	C130.877670,284.251373 134.301712,287.644226 137.968155,290.751038 
	C139.598679,292.132660 141.718018,292.937378 143.728546,294.428619 
	C144.749481,299.600494 145.657349,304.347687 146.565216,309.094910 
	C146.959595,309.021698 147.353958,308.948486 147.748322,308.875275 
	C147.871765,307.917297 147.995209,306.959290 148.488708,306.002319 
	C150.193130,306.769531 151.704361,307.336395 152.831329,308.336365 
	C157.792526,312.738342 162.467926,317.476868 167.573410,321.698547 
	C175.717804,328.433044 184.630676,334.317291 190.233917,343.673279 
	C191.075165,345.077972 192.395554,346.192322 193.265350,347.584045 
	C194.927719,350.243958 196.425308,353.006805 197.991272,355.726898 
z"/>
<path fill="#F588CC" opacity="1.000000" stroke="none" 
	d="
M316.803436,255.983856 
	C312.977112,260.051544 309.150787,264.119202 305.619690,267.873016 
	C275.399536,237.727173 245.640884,208.041748 215.364014,177.839355 
	C218.808838,174.499054 222.584976,170.837479 226.699341,167.375549 
	C230.223160,172.060196 233.404419,176.548325 236.605759,181.022095 
	C236.788345,181.277267 237.118759,181.445526 237.408432,181.602448 
	C247.644073,187.147232 256.459808,194.473846 264.432648,202.905472 
	C272.483429,211.419556 280.643158,219.830627 288.760712,228.281464 
	C296.881012,236.735107 304.983582,245.206085 313.164429,253.600739 
	C314.152344,254.614487 315.579742,255.199921 316.803436,255.983856 
z"/>
<path fill="#5FCBF9" opacity="1.000000" stroke="none" 
	d="
M238.406982,333.101990 
	C236.129440,326.905853 232.496704,321.852386 226.738129,318.300507 
	C224.550949,316.951477 222.576553,315.190643 220.711136,313.402588 
	C217.918549,310.725800 215.328568,307.838867 212.615280,305.077820 
	C207.202744,299.569977 201.783691,294.068237 196.325378,288.605896 
	C194.827072,287.106506 193.166916,285.770111 191.604233,284.333618 
	C188.222122,281.224640 184.967133,277.965820 181.453674,275.014038 
	C176.956314,271.235596 172.255661,267.699127 167.435104,263.717346 
	C172.172638,258.589508 177.117676,253.802719 182.429321,249.017212 
	C184.904770,250.219894 187.434311,251.017822 189.044769,252.697144 
	C194.202591,258.075500 198.725815,264.079773 204.033234,269.293549 
	C213.556412,278.648712 223.518768,287.555237 233.195587,296.756500 
	C236.186218,299.600159 238.426697,303.401733 241.751419,305.687012 
	C247.282227,309.488647 250.039230,314.504272 250.956268,320.868103 
	C246.872406,324.889801 242.788559,328.911499 238.406982,333.101990 
z"/>
<path fill="#50DCED" opacity="1.000000" stroke="none" 
	d="
M198.380798,355.763794 
	C196.425308,353.006805 194.927719,350.243958 193.265350,347.584045 
	C192.395554,346.192322 191.075165,345.077972 190.233917,343.673279 
	C184.630676,334.317291 175.717804,328.433044 167.573410,321.698547 
	C162.467926,317.476868 157.792526,312.738342 152.831329,308.336365 
	C151.704361,307.336395 150.193130,306.769531 148.425644,305.565887 
	C149.623825,297.741180 151.255142,290.353851 152.886459,282.966553 
	C158.225250,282.380341 160.834106,286.435028 163.986099,289.530334 
	C169.377640,294.824951 174.620972,300.275757 180.130188,305.443909 
	C187.456436,312.316589 194.952698,319.009216 202.429199,325.719879 
	C205.011719,328.037842 207.696945,330.251007 210.435196,332.383698 
	C215.394394,336.246155 218.764938,341.046326 219.876434,347.713074 
	C212.942139,350.640594 205.856247,353.220673 198.380798,355.763794 
z"/>
<path fill="#77BAFD" opacity="1.000000" stroke="none" 
	d="
M196.773315,196.459625 
	C199.674957,193.312256 202.576584,190.164871 205.132828,187.392166 
	C235.269821,217.534897 265.087189,247.357971 295.453796,277.730347 
	C293.858154,279.111816 291.553955,281.106720 288.480591,283.091858 
	C284.693390,282.755707 281.594849,284.963776 278.716400,281.350830 
	C273.393738,274.669891 267.662781,268.256287 261.596924,262.240448 
	C254.558105,255.259628 247.002350,248.797165 239.609741,242.178101 
	C237.921341,240.666397 235.527802,239.766373 234.246307,238.010178 
	C230.862061,233.372330 228.441299,227.949539 224.675735,223.688766 
	C216.703918,214.668579 210.922302,203.248947 198.607590,198.694885 
	C197.827332,198.406342 197.377090,197.225403 196.773315,196.459625 
z"/>
<path fill="#FE9B7A" opacity="1.000000" stroke="none" 
	d="
M321.024414,95.454384 
	C352.632141,91.797882 384.019806,116.379768 387.909485,147.996750 
	C388.534363,153.076218 388.405121,158.248444 388.050537,163.665085 
	C382.833557,160.760315 378.233948,157.501297 373.507812,154.437363 
	C372.647461,153.879608 371.270508,154.118820 370.082825,153.577271 
	C368.710876,149.505753 367.388092,145.847107 366.043884,141.808319 
	C365.275055,140.251770 364.732666,138.853348 363.742859,137.939514 
	C360.463043,134.911423 356.958221,132.128006 353.655487,129.123474 
	C345.731842,121.915184 337.735596,114.777138 330.051147,107.319679 
	C326.496216,103.869804 321.286407,101.479675 321.024414,95.454384 
z"/>
<path fill="#F988C3" opacity="1.000000" stroke="none" 
	d="
M317.004578,255.702942 
	C315.579742,255.199921 314.152344,254.614487 313.164429,253.600739 
	C304.983582,245.206085 296.881012,236.735107 288.760712,228.281464 
	C280.643158,219.830627 272.483429,211.419556 264.432648,202.905472 
	C256.459808,194.473846 247.644073,187.147232 237.408432,181.602448 
	C237.118759,181.445526 236.788345,181.277267 236.605759,181.022095 
	C233.404419,176.548325 230.223160,172.060196 226.989487,167.203278 
	C229.089035,164.642090 231.236664,162.452774 234.037262,160.166641 
	C235.996292,161.447540 237.307343,162.820587 238.607376,164.203979 
	C241.359436,167.132523 244.105759,170.066467 246.919357,173.397308 
	C247.290878,179.839462 251.602585,177.697845 254.941559,178.041687 
	C257.185425,181.288116 258.881134,184.802536 261.650177,186.899536 
	C269.797424,193.069412 276.214996,200.677307 282.001129,208.953873 
	C283.412933,210.973328 284.764496,213.189178 286.637909,214.703384 
	C292.846222,219.721313 297.498352,227.432648 307.009827,227.390900 
	C308.696350,233.653519 310.357086,234.349655 315.417419,231.327316 
	C316.246857,230.831924 317.131256,230.428604 318.135345,230.283798 
	C319.508514,231.878082 320.941406,233.033524 321.923065,234.492523 
	C324.117554,237.754242 326.087128,241.167267 328.148346,244.518646 
	C324.500793,248.153107 320.853271,251.787567 317.004578,255.702942 
z"/>
<path fill="#65C5FC" opacity="1.000000" stroke="none" 
	d="
M251.261078,320.746246 
	C250.039230,314.504272 247.282227,309.488647 241.751419,305.687012 
	C238.426697,303.401733 236.186218,299.600159 233.195587,296.756500 
	C223.518768,287.555237 213.556412,278.648712 204.033234,269.293549 
	C198.725815,264.079773 194.202591,258.075500 189.044769,252.697144 
	C187.434311,251.017822 184.904770,250.219894 182.562332,248.715485 
	C186.755554,244.207474 191.182404,240.002487 195.942810,235.947968 
	C201.696060,242.468079 207.027039,248.915985 212.559311,255.186340 
	C218.622147,262.058014 224.753281,268.878632 231.099152,275.486725 
	C233.468033,277.953491 237.000320,279.356506 239.186066,281.936066 
	C246.974243,291.127441 254.411514,300.616150 261.981628,309.992310 
	C258.509705,313.536316 255.037796,317.080353 251.261078,320.746246 
z"/>
<path fill="#6EBDFE" opacity="1.000000" stroke="none" 
	d="
M279.163055,293.050781 
	C276.367310,295.633362 273.571533,298.215942 270.160767,300.792786 
	C247.572083,276.646454 225.598419,252.505829 203.746552,228.058502 
	C204.217392,227.190506 204.583832,226.639191 204.912567,226.066238 
	C206.484024,223.327362 206.710709,220.775055 203.912384,218.605087 
	C200.957458,216.313690 199.097610,218.472534 197.159729,220.248016 
	C194.728088,222.475830 192.327759,224.737808 189.611298,226.843323 
	C187.764175,225.525742 186.248856,224.308899 184.668900,223.182785 
	C181.670731,221.045837 178.635529,218.960861 175.615723,216.854309 
	C181.190750,211.292831 186.765793,205.731354 192.767914,200.321136 
	C194.023376,201.706848 194.735367,203.041473 195.698288,204.160110 
	C204.295715,214.147812 212.705475,224.310516 221.617935,234.010574 
	C236.732651,250.460999 251.122253,267.644531 268.553650,281.834534 
	C269.537445,282.635376 270.078735,283.956757 270.981201,284.884949 
	C273.666931,287.647339 276.430115,290.334320 279.163055,293.050781 
z"/>
<path fill="#69C0FE" opacity="1.000000" stroke="none" 
	d="
M203.624756,228.365204 
	C225.598419,252.505829 247.572083,276.646454 269.867462,300.943604 
	C267.656616,303.973267 265.124054,306.846405 262.286560,309.855957 
	C254.411514,300.616150 246.974243,291.127441 239.186066,281.936066 
	C237.000320,279.356506 233.468033,277.953491 231.099152,275.486725 
	C224.753281,268.878632 218.622147,262.058014 212.559311,255.186340 
	C207.027039,248.915985 201.696060,242.468079 196.154037,235.676361 
	C198.562744,232.957947 201.093750,230.661575 203.624756,228.365204 
z"/>
<path fill="#71BBFE" opacity="1.000000" stroke="none" 
	d="
M279.455536,292.907715 
	C276.430115,290.334320 273.666931,287.647339 270.981201,284.884949 
	C270.078735,283.956757 269.537445,282.635376 268.553650,281.834534 
	C251.122253,267.644531 236.732651,250.460999 221.617935,234.010574 
	C212.705475,224.310516 204.295715,214.147812 195.698288,204.160110 
	C194.735367,203.041473 194.023376,201.706848 193.055298,200.145401 
	C194.004089,198.794113 195.092590,197.769821 196.477203,196.602570 
	C197.377090,197.225403 197.827332,198.406342 198.607590,198.694885 
	C210.922302,203.248947 216.703918,214.668579 224.675735,223.688766 
	C228.441299,227.949539 230.862061,233.372330 234.246307,238.010178 
	C235.527802,239.766373 237.921341,240.666397 239.609741,242.178101 
	C247.002350,248.797165 254.558105,255.259628 261.596924,262.240448 
	C267.662781,268.256287 273.393738,274.669891 278.716400,281.350830 
	C281.594849,284.963776 284.693390,282.755707 288.155579,283.126526 
	C285.649170,286.368835 282.698608,289.566742 279.455536,292.907715 
z"/>
<path fill="#FE9884" opacity="1.000000" stroke="none" 
	d="
M320.633911,95.383072 
	C321.286407,101.479675 326.496216,103.869804 330.051147,107.319679 
	C337.735596,114.777138 345.731842,121.915184 353.655487,129.123474 
	C356.958221,132.128006 360.463043,134.911423 363.742859,137.939514 
	C364.732666,138.853348 365.275055,140.251770 366.049316,142.248840 
	C365.993927,146.710358 365.911652,150.351242 365.481873,153.989120 
	C364.362640,153.733429 363.384338,153.699554 362.850159,153.195267 
	C354.878845,145.669769 346.609894,138.409546 339.208496,130.354111 
	C336.081665,126.950974 331.126801,123.901276 332.308167,117.823219 
	C333.235291,117.425285 333.848724,117.105682 334.738770,116.641991 
	C327.109711,113.113380 319.738770,114.528931 312.034546,115.157578 
	C306.108124,111.800613 300.685272,108.414642 300.006531,101.077469 
	C306.752136,99.155563 313.497772,97.233665 320.633911,95.383072 
z"/>
<path fill="#323333" opacity="1.000000" stroke="none" 
	d="
M190.220886,448.451691 
	C189.925262,449.283905 189.875366,449.852539 189.573975,450.207947 
	C188.520081,451.450653 187.379425,452.619781 186.271729,453.816864 
	C185.315247,452.641754 183.986557,451.611053 183.465256,450.267181 
	C180.899857,443.653564 178.548737,436.956879 176.121964,430.289520 
	C175.561325,430.328400 175.000702,430.367279 174.440079,430.406128 
	C174.440079,437.199890 174.362030,443.995026 174.477753,450.786804 
	C174.525330,453.577789 173.875122,454.952667 171.198471,453.839630 
	C171.198471,443.514435 171.198471,433.431488 171.198471,423.574829 
	C175.635574,421.697174 177.367157,423.408905 178.612289,427.040161 
	C180.926514,433.789246 183.648575,440.398468 186.721344,448.425659 
	C189.778244,440.577332 192.443268,433.785858 195.067719,426.978760 
	C196.745178,422.627930 196.718292,422.617554 202.538208,423.309387 
	C202.538208,433.321991 202.538208,443.421570 202.538208,453.978149 
	C200.178207,454.916504 199.000900,454.157318 199.085678,450.807983 
	C199.253265,444.186096 199.135132,437.556976 199.135132,430.930847 
	C198.557587,430.813568 197.980057,430.696289 197.402512,430.579010 
	C195.052109,436.416107 192.701691,442.253235 190.220886,448.451691 
z"/>
<path fill="#FE968A" opacity="1.000000" stroke="none" 
	d="
M370.132019,153.990128 
	C371.270508,154.118820 372.647461,153.879608 373.507812,154.437363 
	C378.233948,157.501297 382.833557,160.760315 387.838013,164.017288 
	C387.956879,174.303589 384.710907,183.531387 378.297607,191.969223 
	C373.739166,187.666901 369.867249,183.333862 366.039307,178.630676 
	C370.078125,170.611664 370.335815,162.339386 370.132019,153.990128 
z"/>
<path fill="#FB8BB2" opacity="1.000000" stroke="none" 
	d="
M328.473083,244.373367 
	C326.087128,241.167267 324.117554,237.754242 321.923065,234.492523 
	C320.941406,233.033524 319.508514,231.878082 318.283203,229.987305 
	C321.193634,226.269531 324.101318,223.149338 327.305481,219.877579 
	C330.420349,217.152557 333.238800,214.579102 336.365540,212.177597 
	C337.455139,214.090866 338.299713,215.807037 339.004700,217.578735 
	C340.546173,221.452393 342.548950,224.851959 346.963104,225.991241 
	C340.908020,232.070190 334.852936,238.149139 328.473083,244.373367 
z"/>
<path fill="#50DCED" opacity="1.000000" stroke="none" 
	d="
M143.615494,294.003967 
	C141.718018,292.937378 139.598679,292.132660 137.968155,290.751038 
	C134.301712,287.644226 130.877670,284.251373 126.974823,280.912964 
	C129.094513,273.988403 131.594345,267.125793 134.744507,260.123169 
	C139.623550,263.713715 143.852280,267.444305 148.027985,271.536713 
	C146.521805,279.266998 145.068649,286.635498 143.615494,294.003967 
z"/>
<path fill="#FD8FA4" opacity="1.000000" stroke="none" 
	d="
M347.171326,225.730774 
	C342.548950,224.851959 340.546173,221.452393 339.004700,217.578735 
	C338.299713,215.807037 337.455139,214.090866 336.503174,211.877243 
	C339.210358,208.597260 342.088165,205.789581 345.265472,202.837799 
	C348.366699,200.102829 351.168427,197.511917 354.124176,195.282791 
	C354.526611,197.081787 354.800720,198.515121 355.018646,199.956955 
	C355.684174,204.359955 359.766174,209.024841 363.791595,209.953125 
	C358.320923,215.125519 352.850250,220.297913 347.171326,225.730774 
z"/>
<path fill="#FE9297" opacity="1.000000" stroke="none" 
	d="
M364.103546,209.810181 
	C359.766174,209.024841 355.684174,204.359955 355.018646,199.956955 
	C354.800720,198.515121 354.526611,197.081787 354.274139,194.990555 
	C358.178497,189.224640 362.086914,184.112717 365.995331,179.000809 
	C369.867249,183.333862 373.739166,187.666901 377.977417,192.071289 
	C373.701019,197.984177 369.058258,203.825714 364.103546,209.810181 
z"/>
<path fill="#FD8FA4" opacity="1.000000" stroke="none" 
	d="
M258.866028,135.686615 
	C263.686584,130.824554 268.507141,125.962486 273.672791,121.297180 
	C277.077362,126.141769 280.136810,130.789612 283.081848,135.727585 
	C277.710846,141.035660 272.454224,146.053604 266.875183,150.929565 
	C260.427521,147.567596 261.146149,140.863876 258.866028,135.686615 
z"/>
<path fill="#5FCBF9" opacity="1.000000" stroke="none" 
	d="
M147.762238,244.419922 
	C152.874741,239.211243 157.987244,234.002563 163.571091,228.990234 
	C166.213821,231.476212 168.605927,233.600342 170.486206,236.108200 
	C171.970993,238.088577 172.826385,240.540848 173.809692,243.094055 
	C168.981247,247.706467 164.304398,252.008377 159.291946,256.135376 
	C155.882828,253.023605 152.780472,250.115906 149.755417,247.129944 
	C148.967270,246.351974 148.420105,245.329880 147.762238,244.419922 
z"/>
<path fill="#FB8BB2" opacity="1.000000" stroke="none" 
	d="
M258.551544,135.821808 
	C261.146149,140.863876 260.427521,147.567596 266.697113,151.218658 
	C262.280853,155.789291 257.720245,159.928894 252.830063,163.929962 
	C250.841782,161.892548 249.143173,160.026718 247.535309,158.085724 
	C245.831955,156.029434 244.214859,153.901672 242.560089,151.805145 
	C247.785751,146.522430 253.011414,141.239716 258.551544,135.821808 
z"/>
<path fill="#65C5FC" opacity="1.000000" stroke="none" 
	d="
M173.961304,242.783539 
	C172.826385,240.540848 171.970993,238.088577 170.486206,236.108200 
	C168.605927,233.600342 166.213821,231.476212 163.878357,228.835663 
	C167.499023,224.710846 171.283768,220.936951 175.342102,217.008667 
	C178.635529,218.960861 181.670731,221.045837 184.668900,223.182785 
	C186.248856,224.308899 187.764175,225.525742 189.477295,227.142761 
	C184.417725,232.650452 179.189529,237.717010 173.961304,242.783539 
z"/>
<path fill="#323333" opacity="1.000000" stroke="none" 
	d="
M331.242523,462.883514 
	C330.261627,461.743988 329.659851,460.697449 328.682770,458.998169 
	C340.157562,461.662781 343.136505,460.298523 343.488464,452.458832 
	C337.900726,454.397125 332.286102,455.588409 328.789825,449.286987 
	C326.155792,444.539520 326.121338,439.445496 329.448059,435.139343 
	C334.122131,429.089264 340.683563,430.901459 347.180634,431.609741 
	C347.180634,439.868317 347.465088,447.820557 347.074158,455.739471 
	C346.838867,460.505981 343.130005,463.160614 337.580750,463.416046 
	C335.605316,463.506958 333.608612,463.136383 331.242523,462.883514 
M332.963165,436.505096 
	C332.686249,440.127258 331.626373,443.947388 332.470490,447.286133 
	C332.878082,448.898285 336.873566,450.508881 339.232117,450.490967 
	C342.122559,450.468964 344.178467,448.273407 343.888702,444.667480 
	C343.626862,441.409271 343.833405,438.113403 343.833405,433.429596 
	C339.892822,434.386261 336.705017,435.160156 332.963165,436.505096 
z"/>
<path fill="#56D3F4" opacity="1.000000" stroke="none" 
	d="
M147.443954,244.565979 
	C148.420105,245.329880 148.967270,246.351974 149.755417,247.129944 
	C152.780472,250.115906 155.882828,253.023605 159.105835,256.432373 
	C155.530563,261.661102 151.805786,266.417999 148.080994,271.174896 
	C143.852280,267.444305 139.623550,263.713715 135.014832,259.918854 
	C138.798431,254.807068 142.962051,249.759552 147.443954,244.565979 
z"/>
<path fill="#FE948E" opacity="1.000000" stroke="none" 
	d="
M299.646393,101.080025 
	C300.685272,108.414642 306.108124,111.800613 311.727539,115.367607 
	C306.659576,118.178055 301.528839,120.696068 296.055908,123.064972 
	C292.434692,120.060417 289.161621,117.198112 285.872925,114.353897 
	C284.931305,113.539551 283.944458,112.777557 282.978333,111.991562 
	C288.414307,108.355232 293.850281,104.718910 299.646393,101.080025 
z"/>
<path fill="#323333" opacity="1.000000" stroke="none" 
	d="
M243.336853,431.296143 
	C246.615845,431.175049 249.543549,431.175049 252.601181,431.175049 
	C253.081207,428.159698 253.618851,424.606659 254.306595,421.082947 
	C254.335159,420.936584 255.767670,421.064240 256.743469,421.064240 
	C256.832672,422.182343 256.951935,422.988647 256.952972,423.795105 
	C256.965759,433.763184 256.961334,443.731262 256.961334,453.162476 
	C253.319519,453.726807 249.946442,454.503662 246.538498,454.713013 
	C242.307831,454.972900 239.201920,452.950073 237.463760,449.000275 
	C235.113449,443.659424 236.192856,436.681335 240.015472,433.199860 
	C240.852448,432.437592 241.987671,432.002777 243.336853,431.296143 
M253.079712,447.025726 
	C253.086716,444.198364 253.386673,441.328308 252.983688,438.560638 
	C252.764832,437.057495 251.647781,434.930695 250.418427,434.472015 
	C246.877090,433.150635 243.480896,433.802643 241.409668,437.480804 
	C239.075714,441.625610 240.026535,448.107666 243.218033,450.323059 
	C246.244843,452.424103 250.120819,451.475342 253.079712,447.025726 
z"/>
<path fill="#383839" opacity="1.000000" stroke="none" 
	d="
M229.300400,434.796631 
	C230.185257,437.745728 230.874176,440.381439 231.724609,443.635071 
	C225.574081,443.635071 220.329254,443.635071 215.095322,443.635071 
	C215.027969,450.854736 218.015976,452.243866 229.281982,450.659332 
	C229.053116,453.791534 229.053116,453.791534 224.871964,454.450165 
	C218.231750,455.496155 213.123184,453.149750 211.136444,448.141327 
	C208.915817,442.543274 210.776535,435.337982 215.194748,432.426392 
	C219.537094,429.564819 224.768127,430.338348 229.300400,434.796631 
M221.415558,440.785950 
	C223.188400,440.785950 224.961243,440.785950 227.121063,440.785950 
	C226.725433,436.509918 225.382462,433.794678 221.120605,433.917908 
	C217.091690,434.034393 214.675552,435.923187 214.908173,440.782593 
	C216.922638,440.782593 218.719574,440.782593 221.415558,440.785950 
z"/>
<path fill="#FE9297" opacity="1.000000" stroke="none" 
	d="
M282.676727,112.129341 
	C283.944458,112.777557 284.931305,113.539551 285.872925,114.353897 
	C289.161621,117.198112 292.434692,120.060417 295.833862,123.326485 
	C291.701416,127.637222 287.448822,131.537338 283.196228,135.437439 
	C280.136810,130.789612 277.077362,126.141769 273.962830,121.119514 
	C276.730164,117.919106 279.552643,115.093109 282.676727,112.129341 
z"/>
<path fill="#323333" opacity="1.000000" stroke="none" 
	d="
M318.971649,434.095642 
	C324.014923,442.542206 322.013153,451.537964 314.813446,454.125214 
	C309.528412,456.024414 304.124878,454.207123 301.408478,449.616913 
	C298.444031,444.607544 299.554016,436.813110 303.756805,433.126282 
	C307.665192,429.697754 313.547363,429.962128 318.971649,434.095642 
M305.139801,436.917633 
	C304.844055,440.145325 303.851227,443.501343 304.416351,446.570526 
	C305.258820,451.145630 310.924622,452.953583 314.755951,450.427917 
	C318.254517,448.121552 319.179382,440.638855 316.445709,436.756531 
	C313.955811,433.220398 310.000305,433.041412 305.139801,436.917633 
z"/>
<path fill="#FA89C1" opacity="1.000000" stroke="none" 
	d="
M242.263275,151.905945 
	C244.214859,153.901672 245.831955,156.029434 247.535309,158.085724 
	C249.143173,160.026718 250.841782,161.892548 252.751068,164.265808 
	C250.952591,167.492859 248.903503,170.245529 246.854431,172.998199 
	C244.105759,170.066467 241.359436,167.132523 238.607376,164.203979 
	C237.307343,162.820587 235.996292,161.447540 234.339355,160.032410 
	C236.647781,157.332245 239.307129,154.669495 242.263275,151.905945 
z"/>
<path fill="#222323" opacity="1.000000" stroke="none" 
	d="
M282.343750,430.064484 
	C282.343597,436.984497 282.343597,443.446472 282.343597,450.819366 
	C286.454681,450.819366 290.356659,450.704193 294.242523,450.903229 
	C295.172455,450.950928 296.048767,452.045074 296.949738,452.657959 
	C296.083679,453.150177 295.228302,454.044952 294.349792,454.068268 
	C289.242584,454.203827 284.129974,454.134583 278.862366,454.134583 
	C278.862366,443.632996 278.862366,433.545532 278.862366,423.462952 
	C282.316803,423.389404 282.316803,423.389404 282.343750,430.064484 
z"/>
<path fill="#222323" opacity="1.000000" stroke="none" 
	d="
M269.232239,452.286438 
	C268.323792,453.273834 267.424225,453.828491 265.677216,454.905640 
	C265.677216,447.168671 265.606567,440.585205 265.755737,434.006653 
	C265.777344,433.053406 266.852783,432.123993 267.440582,431.183563 
	C268.038818,432.102570 269.130066,433.008423 269.155029,433.942780 
	C269.314423,439.909576 269.239166,445.882660 269.232239,452.286438 
z"/>
<path fill="#E2F7FE" opacity="1.000000" stroke="none" 
	d="
M148.027985,271.536713 
	C151.805786,266.417999 155.530563,261.661102 159.441437,256.607239 
	C164.304398,252.008377 168.981247,247.706467 173.809708,243.094055 
	C179.189529,237.717010 184.417725,232.650452 189.779922,227.284470 
	C192.327759,224.737808 194.728088,222.475830 197.159729,220.248016 
	C199.097610,218.472534 200.957458,216.313690 203.912384,218.605087 
	C206.710709,220.775055 206.484024,223.327362 204.912567,226.066238 
	C204.583832,226.639191 204.217392,227.190506 203.746552,228.058487 
	C201.093750,230.661575 198.562744,232.957947 195.820496,235.525909 
	C191.182404,240.002487 186.755554,244.207474 182.195709,248.714203 
	C177.117676,253.802719 172.172638,258.589508 167.078888,263.676819 
	C162.282364,270.070801 157.634552,276.164276 152.936615,282.612122 
	C151.255142,290.353851 149.623825,297.741180 148.055573,305.564880 
	C147.995209,306.959290 147.871765,307.917297 147.748322,308.875275 
	C147.353958,308.948486 146.959595,309.021698 146.565216,309.094910 
	C145.657349,304.347687 144.749481,299.600494 143.728546,294.428619 
	C145.068649,286.635498 146.521805,279.266998 148.027985,271.536713 
z"/>
<path fill="#FEC6C9" opacity="1.000000" stroke="none" 
	d="
M366.039307,178.630676 
	C362.086914,184.112717 358.178497,189.224640 354.120117,194.628784 
	C351.168427,197.511917 348.366699,200.102829 344.923889,202.788467 
	C342.454865,200.890991 340.626892,198.898773 338.889832,196.576004 
	C342.343109,192.512070 345.705505,188.778702 349.363770,184.887360 
	C352.788940,180.513550 355.918182,176.297668 359.315369,171.858948 
	C361.665314,165.754761 363.747314,159.873444 365.829346,153.992126 
	C365.911652,150.351242 365.993927,146.710358 366.070770,142.628967 
	C367.388092,145.847107 368.710876,149.505753 370.082825,153.577271 
	C370.335815,162.339386 370.078125,170.611664 366.039307,178.630676 
z"/>
<path fill="#FEF9FA" opacity="1.000000" stroke="none" 
	d="
M246.919342,173.397308 
	C248.903503,170.245529 250.952591,167.492859 253.080658,164.404358 
	C257.720245,159.928894 262.280853,155.789291 267.019501,151.360626 
	C272.454224,146.053604 277.710846,141.035660 283.081848,135.727570 
	C287.448822,131.537338 291.701416,127.637222 296.176056,123.475601 
	C301.528839,120.696068 306.659576,118.178055 312.097351,115.450012 
	C319.738770,114.528931 327.109711,113.113380 334.738770,116.641991 
	C333.848724,117.105682 333.235291,117.425285 331.895813,117.805511 
	C326.251068,119.453125 321.332336,121.040123 316.083130,122.667877 
	C311.157898,125.781845 306.563141,128.855057 301.664795,132.070541 
	C297.849854,135.709396 294.338440,139.205994 290.544800,142.888718 
	C287.445190,145.935883 284.627808,148.796936 281.496887,151.789200 
	C278.113647,154.931198 275.043976,157.942001 271.684998,161.117249 
	C267.897217,164.789078 264.398743,168.296478 260.612946,171.969604 
	C258.511719,173.977570 256.697784,175.819778 254.883850,177.661987 
	C251.602585,177.697845 247.290878,179.839462 246.919342,173.397308 
z"/>
<path fill="#FA89C1" opacity="1.000000" stroke="none" 
	d="
M254.941559,178.041687 
	C256.697784,175.819778 258.511719,173.977570 260.763123,172.290405 
	C269.626648,183.001190 278.488129,193.244873 286.344299,204.208923 
	C292.924042,213.391632 300.672302,220.072357 311.867310,222.294861 
	C310.152313,224.061066 308.578583,225.534653 307.004852,227.008224 
	C297.498352,227.432648 292.846222,219.721313 286.637909,214.703384 
	C284.764496,213.189178 283.412933,210.973328 282.001129,208.953873 
	C276.214996,200.677307 269.797424,193.069412 261.650177,186.899536 
	C258.881134,184.802536 257.185425,181.288116 254.941559,178.041687 
z"/>
<path fill="#FDA0CC" opacity="1.000000" stroke="none" 
	d="
M307.009827,227.390900 
	C308.578583,225.534653 310.152313,224.061066 312.162354,222.152191 
	C314.396790,219.809525 316.194916,217.902145 318.277893,215.860672 
	C319.699188,214.807083 320.835602,213.887589 322.118774,213.267914 
	C323.846680,215.721512 325.427856,217.875320 327.009003,220.029144 
	C324.101318,223.149338 321.193634,226.269531 318.138123,229.686218 
	C317.131256,230.428604 316.246857,230.831924 315.417419,231.327316 
	C310.357086,234.349655 308.696350,233.653519 307.009827,227.390900 
z"/>
<path fill="#FE968A" opacity="1.000000" stroke="none" 
	d="
M316.413605,122.627121 
	C321.332336,121.040123 326.251068,119.453125 331.582153,117.883835 
	C331.126801,123.901276 336.081665,126.950974 339.208496,130.354111 
	C346.609894,138.409546 354.878845,145.669769 362.850159,153.195267 
	C363.384338,153.699554 364.362640,153.733429 365.481873,153.989120 
	C363.747314,159.873444 361.665314,165.754761 359.125549,171.577087 
	C354.181549,166.914932 349.421021,162.544388 345.274323,157.653397 
	C339.247894,150.545334 333.746399,142.995010 327.861542,135.763107 
	C324.197693,131.260620 320.239624,126.997612 316.413605,122.627121 
z"/>
<path fill="#FEB6CD" opacity="1.000000" stroke="none" 
	d="
M327.305481,219.877563 
	C325.427856,217.875320 323.846680,215.721512 322.171936,212.945526 
	C322.733368,211.249847 323.388397,210.176376 324.376648,209.028992 
	C328.806946,204.970352 332.904083,200.985672 337.302124,196.986450 
	C338.001678,196.950119 338.400330,196.928345 338.798950,196.906555 
	C340.626892,198.898773 342.454865,200.890991 344.624390,202.932556 
	C342.088165,205.789581 339.210358,208.597260 336.194885,211.705307 
	C333.238800,214.579102 330.420349,217.152557 327.305481,219.877563 
z"/>
<path fill="#F7F7F6" opacity="1.000000" stroke="none" 
	d="
M333.240173,436.219574 
	C336.705017,435.160156 339.892822,434.386261 343.833405,433.429596 
	C343.833405,438.113403 343.626862,441.409271 343.888702,444.667480 
	C344.178467,448.273407 342.122559,450.468964 339.232117,450.490967 
	C336.873566,450.508881 332.878082,448.898285 332.470490,447.286133 
	C331.626373,443.947388 332.686249,440.127258 333.240173,436.219574 
z"/>
<path fill="#F7F7F6" opacity="1.000000" stroke="none" 
	d="
M253.062469,447.471680 
	C250.120819,451.475342 246.244843,452.424103 243.218033,450.323059 
	C240.026535,448.107666 239.075714,441.625610 241.409668,437.480804 
	C243.480896,433.802643 246.877090,433.150635 250.418427,434.472015 
	C251.647781,434.930695 252.764832,437.057495 252.983688,438.560638 
	C253.386673,441.328308 253.086716,444.198364 253.062469,447.471680 
z"/>
<path fill="#F7F7F6" opacity="1.000000" stroke="none" 
	d="
M220.966034,440.784271 
	C218.719574,440.782593 216.922638,440.782593 214.908173,440.782593 
	C214.675552,435.923187 217.091690,434.034393 221.120605,433.917908 
	C225.382462,433.794678 226.725433,436.509918 227.121063,440.785950 
	C224.961243,440.785950 223.188400,440.785950 220.966034,440.784271 
z"/>
<path fill="#F7F7F6" opacity="1.000000" stroke="none" 
	d="
M305.387451,436.592468 
	C310.000305,433.041412 313.955811,433.220398 316.445709,436.756531 
	C319.179382,440.638855 318.254517,448.121552 314.755951,450.427917 
	C310.924622,452.953583 305.258820,451.145630 304.416351,446.570526 
	C303.851227,443.501343 304.844055,440.145325 305.387451,436.592468 
z"/>
<path fill="#FF9393" opacity="1.000000" stroke="none" 
	d="
M316.083130,122.667877 
	C320.239624,126.997612 324.197693,131.260620 327.861542,135.763107 
	C333.746399,142.995010 339.247894,150.545334 345.274323,157.653397 
	C349.421021,162.544388 354.181549,166.914932 358.857605,171.799942 
	C355.918182,176.297668 352.788940,180.513550 349.052185,184.733185 
	C337.618164,177.335281 330.368774,166.464874 321.683990,156.997849 
	C317.784912,152.747574 314.398743,148.023071 310.831482,143.473221 
	C307.838196,139.655426 304.919861,135.778839 301.968353,131.928284 
	C306.563141,128.855057 311.157898,125.781845 316.083130,122.667877 
z"/>
<path fill="#FF909F" opacity="1.000000" stroke="none" 
	d="
M301.664795,132.070541 
	C304.919861,135.778839 307.838196,139.655426 310.831482,143.473221 
	C314.398743,148.023071 317.784912,152.747574 321.683990,156.997849 
	C330.368774,166.464874 337.618164,177.335281 348.756287,184.891144 
	C345.705505,188.778702 342.343109,192.512070 338.889832,196.576019 
	C338.400330,196.928345 338.001678,196.950119 337.105408,196.713394 
	C331.643707,193.703781 327.497345,190.243668 324.406036,185.262299 
	C322.118378,181.575821 318.653992,178.631226 315.809021,175.275406 
	C313.370026,172.398422 311.040619,169.426910 308.710297,166.459808 
	C306.789062,164.013550 305.282104,161.117218 302.985565,159.115601 
	C297.688080,154.498398 291.352112,150.805435 290.826996,142.702606 
	C294.338440,139.205994 297.849854,135.709396 301.664795,132.070541 
z"/>
<path fill="#FE8EA7" opacity="1.000000" stroke="none" 
	d="
M290.544800,142.888702 
	C291.352112,150.805435 297.688080,154.498398 302.985565,159.115601 
	C305.282104,161.117218 306.789062,164.013550 308.710297,166.459808 
	C311.040619,169.426910 313.370026,172.398422 315.809021,175.275406 
	C318.653992,178.631226 322.118378,181.575821 324.406036,185.262299 
	C327.497345,190.243668 331.643707,193.703781 336.804504,196.727936 
	C332.904083,200.985672 328.806946,204.970352 324.330078,208.667694 
	C319.893311,203.013321 316.052368,197.464401 311.726135,192.323929 
	C305.910919,185.414169 299.316772,179.131500 293.814270,171.995697 
	C289.021423,165.780212 283.651093,159.701401 281.810425,151.657990 
	C284.627808,148.796936 287.445190,145.935883 290.544800,142.888702 
z"/>
<path fill="#FC8AB9" opacity="1.000000" stroke="none" 
	d="
M317.993042,215.994781 
	C316.194916,217.902145 314.396790,219.809525 312.303589,221.859573 
	C300.672302,220.072357 292.924042,213.391632 286.344299,204.208923 
	C278.488129,193.244873 269.626648,183.001190 261.050476,172.124664 
	C264.398743,168.296478 267.897217,164.789078 271.841370,161.434235 
	C276.256897,167.624557 279.886627,173.923691 284.277710,179.637726 
	C290.584747,187.844986 297.208374,195.841919 304.161011,203.507675 
	C308.313263,208.085815 313.352509,211.859497 317.993042,215.994781 
z"/>
<path fill="#FE8CAF" opacity="1.000000" stroke="none" 
	d="
M318.277893,215.860687 
	C313.352509,211.859497 308.313263,208.085815 304.161011,203.507675 
	C297.208374,195.841919 290.584747,187.844986 284.277710,179.637726 
	C279.886627,173.923691 276.256897,167.624557 272.130676,161.269806 
	C275.043976,157.942001 278.113647,154.931198 281.496887,151.789185 
	C283.651093,159.701401 289.021423,165.780212 293.814270,171.995697 
	C299.316772,179.131500 305.910919,185.414169 311.726135,192.323929 
	C316.052368,197.464401 319.893311,203.013321 323.996918,208.741623 
	C323.388397,210.176376 322.733368,211.249847 322.025177,212.645721 
	C320.835602,213.887589 319.699188,214.807083 318.277893,215.860687 
z"/>
</svg>